# Blender 4.3.1
# www.blender.org
mtllib walkways.mtl
o Walkay
v -34.414875 2.157443 1.945519
v -34.414875 -0.072959 1.945517
v 34.414875 2.157443 1.945496
v 34.414875 -0.072959 1.945495
v -34.414875 2.157444 -1.126066
v -34.414875 -0.072957 -1.126067
v 34.414875 2.157444 -1.126088
v 34.414875 -0.072957 -1.126090
v -1.535791 -0.072960 4.824586
v 1.535791 -0.072955 -4.005157
v 1.535793 -0.072960 4.824585
v -1.535793 -0.072955 -4.005157
v 4.414872 2.157443 1.945506
v -4.414871 2.157443 1.945509
v -4.414871 -0.072959 1.945508
v 4.414872 -0.072959 1.945505
v -4.414872 2.157444 -1.126076
v 4.414871 2.157444 -1.126078
v 4.414871 -0.072957 -1.126080
v -4.414872 -0.072957 -1.126077
v 1.535785 -0.072946 -23.100103
v -1.535800 -0.072946 -23.100103
v 1.535785 2.157455 -23.100101
v -1.535800 2.157455 -23.100101
v -1.503710 2.157446 -4.005155
v 1.503710 2.157441 4.824586
v 1.503707 2.157446 -4.005156
v -1.503707 2.157441 4.824587
v -1.471624 -0.072957 -1.126078
v 1.471623 -0.072957 -1.126079
v -1.503709 2.157444 -1.126077
v 1.503708 2.157444 -1.126078
v 34.414875 2.157443 1.553605
v 34.414875 -0.072958 1.553603
v -34.414875 2.157443 1.553627
v -34.414875 -0.072958 1.553626
v -4.414871 -0.072958 1.553616
v 4.414872 -0.072958 1.553613
v -4.414871 2.157443 1.553617
v 4.414872 2.157443 1.553614
v -1.471624 -0.072958 1.553615
v 1.471624 -0.072958 1.553614
v -1.503707 2.157441 4.311476
v 1.503709 2.157441 4.311475
v -4.414871 2.435812 1.945509
v -34.414875 2.435812 1.945519
v 34.414875 2.435812 1.553605
v 34.414875 2.435812 1.945496
v -1.503707 2.435812 4.824587
v 4.414872 2.435812 1.945506
v 1.503710 2.435812 4.824586
v 4.414872 2.435812 1.553614
v -34.414875 2.435812 1.553627
v -4.414871 2.435812 1.553617
v -1.503707 2.435811 4.311477
v 1.503709 2.435811 4.311476
v 4.414872 -8.151011 1.945501
v 34.414875 -8.151011 1.945491
v -34.414875 -8.151011 1.553622
v -34.414875 -8.151011 1.945514
v -1.535791 -8.151012 4.824582
v 1.535793 -8.151012 4.824581
v -4.414871 -8.151011 1.945504
v 1.471624 -8.151011 1.945502
v -1.471624 -8.151011 1.945503
v -1.471624 -8.151011 1.553611
v 1.471624 -8.151011 1.553610
v 34.414875 -8.151011 1.553600
v -4.414871 -8.151011 1.553612
v 4.414872 -8.151011 1.553610
vn -0.0000 -0.0000 1.0000
vn -0.0000 -1.0000 -0.0000
vn -0.0000 -0.0000 -1.0000
vn -1.0000 -0.0000 -0.0000
vn 1.0000 0.0072 0.0008
vn 0.7051 0.0051 -0.7091
vn 0.7061 0.0025 0.7081
vn 0.7042 0.0025 0.7100
vn -0.7051 0.0051 -0.7091
vn -1.0000 0.0072 0.0008
vn 1.0000 -0.0000 -0.0000
vn -0.0000 1.0000 -0.0000
vn -0.7061 0.0025 0.7081
vn -0.7042 0.0025 0.7100
vn 0.7071 -0.0000 0.7071
vn -0.7071 -0.0000 0.7071
vn 0.7032 -0.0000 0.7110
vn 0.6877 -0.0000 -0.7260
vn -0.6877 -0.0000 -0.7260
vn -0.7032 -0.0000 0.7110
vt 9.356772 -3.539766
vt 8.432302 -3.539766
vt 8.432304 -15.974348
vt 9.356772 -15.974348
vt -5.134562 12.554623
vt -5.134562 0.120040
vt -4.023867 0.120040
vt -4.023867 12.554623
vt 15.531940 -1.126494
vt 16.456411 -1.126494
vt 16.456409 11.308088
vt 15.531940 11.308088
vt -15.060716 12.670004
vt -15.060716 13.594475
vt -15.223149 13.594475
vt -15.223150 12.670004
vt -9.714003 13.814455
vt -10.638473 13.827753
vt -10.638473 12.554623
vt -9.714003 12.567923
vt 16.456406 -15.974348
vt 17.380896 -15.974346
vt 17.380896 -8.059759
vt 16.456427 -8.059757
vt -11.562942 13.827753
vt -11.562942 12.554623
vt 16.456411 -3.539764
vt 16.456411 -2.346427
vt 15.531942 -2.333129
vt 15.531942 -3.539764
vt 8.432302 -2.346428
vt 9.356771 -2.333129
vt 15.531940 -2.333129
vt 16.456409 -2.319832
vt 17.380880 -0.145167
vt 16.456411 -0.145167
vt 16.456409 -8.059755
vt 9.356771 -1.086597
vt 8.432302 -1.073299
vt 15.531942 -15.974346
vt 16.456411 -15.974346
vt 9.356771 12.554623
vt 8.432300 12.554623
vt 8.432302 0.120040
vt 9.356771 0.120040
vt -15.385583 12.669998
vt -15.385583 13.594469
vt -16.496279 13.594469
vt -16.496279 12.669998
vt -5.134562 -15.974348
vt -4.023867 -15.974346
vt -4.023867 -3.539766
vt -5.134562 -3.539766
vt -8.581690 -2.333129
vt -8.581690 -1.086596
vt -16.496279 -1.073297
vt -16.496279 -2.346426
vt 5.084060 -2.346427
vt 5.084060 -1.073298
vt -2.830529 -1.073298
vt -2.830529 -2.346427
vt -6.277658 -3.539766
vt -7.388352 -3.539766
vt -7.388354 -15.974346
vt -6.277658 -15.974348
vt 9.472154 -15.974348
vt 9.472153 -3.539766
vt 5.084063 -3.539766
vt 5.084063 -15.974348
vt -13.950020 12.556337
vt -12.756480 12.554619
vt -12.756480 15.902857
vt -13.950020 15.904573
vt 12.820394 -1.099895
vt 12.820394 0.120040
vt 9.472154 0.120040
vt 9.472154 -1.099896
vt 5.084060 12.554623
vt 5.084060 0.120039
vt -4.023867 -1.099896
vt -4.023867 -2.319830
vt -12.756480 12.554623
vt -11.562942 12.556337
vt -11.562942 15.904575
vt -12.756481 15.902861
vt 12.820395 -15.974346
vt 12.820394 -3.539764
vt 9.472154 -3.539766
vt -5.134562 -1.086597
vt -6.277657 0.120040
vt -7.388352 0.120040
vt -7.388352 -1.086596
vt -5.134562 -2.333129
vt -7.388352 -2.333129
vt 9.472153 0.120040
vt 9.472151 12.554623
vt 9.472153 -2.333129
vt -5.134562 -1.099896
vt -5.134562 -2.319830
vt -6.277656 12.554623
vt -7.388350 12.554623
vt 17.380899 -3.539767
vt 17.380899 -15.974348
vt 17.496279 -15.974348
vt 17.496279 -3.539767
vt 12.820394 12.554623
vt 9.472153 12.554623
vt -15.223150 12.669998
vt -15.223150 13.594469
vt -13.950020 12.670004
vt -13.950020 13.594475
vt 12.820394 -2.319830
vt 9.472154 -2.319830
vt -15.385583 12.554619
vt -15.223149 12.554619
vt 14.176166 0.120039
vt 14.338599 0.120039
vt 14.338599 12.554623
vt 14.176166 12.554623
vt 15.531939 -2.333129
vt 15.319261 -2.333129
vt 14.176166 -3.539766
vt 14.338599 -3.539766
vt 15.319261 -1.086597
vt 15.531939 -1.086597
vt 14.176166 -15.974348
vt 14.338599 -15.974348
vt 9.472153 -1.086597
vt 17.380898 -2.333129
vt 17.496279 -2.333129
vt -15.223150 12.554623
vt -15.060716 12.554623
vt 17.380898 -1.086597
vt 17.496279 -1.086597
vt 17.380898 0.120039
vt 17.496279 0.120039
vt 17.380898 12.554623
vt 17.496277 12.554623
vt 14.176162 -1.099896
vt 14.176162 0.120040
vt 14.013728 0.120040
vt 14.013728 -1.099896
vt 14.176162 -3.539766
vt 14.176162 -2.319831
vt 14.013728 -2.319831
vt 14.013728 -3.539766
vt 12.820389 -1.073299
vt 12.820389 -2.346428
vt 14.013728 -15.974348
vt 14.176162 -15.974348
vt 14.013728 12.554623
vt 14.176162 12.554623
vt -15.060716 16.942709
vt -15.223149 16.942709
vt -15.223150 16.942707
vt -15.385583 16.942707
vt 5.084060 -1.073299
vt 5.084060 -2.346428
s 1
usemtl Material.001
f 13/1/1 16/2/1 4/3/1 3/4/1
f 34/5/2 38/6/2 19/7/2 8/8/2
f 17/9/3 20/10/3 6/11/3 5/12/3
f 35/13/4 36/14/4 2/15/4 1/16/4
f 25/17/1 12/18/1 10/19/1 27/20/1
f 27/21/5 10/22/5 21/23/5 23/24/5
f 23/18/3 21/25/3 22/26/3 24/19/3
f 19/27/6 10/28/6 27/29/6 18/30/6
f 11/31/7 16/2/7 13/1/8 26/32/8
f 17/9/9 25/33/9 12/34/9 20/10/9
f 24/35/10 22/36/10 12/37/10 25/23/10
f 11/31/1 26/32/1 28/38/1 9/39/1
f 7/40/3 8/41/3 19/27/3 18/30/3
f 1/42/1 2/43/1 15/44/1 14/45/1
f 33/46/11 34/47/11 8/48/11 7/49/11
f 36/50/2 6/51/2 20/52/2 37/53/2
f 25/54/12 27/55/12 23/56/12 24/57/12
f 22/58/2 21/59/2 10/60/2 12/61/2
f 9/39/13 28/38/14 14/45/14 15/44/13
f 39/62/12 17/63/12 5/64/12 35/65/12
f 13/1/1 3/4/1 48/66/1 50/67/1
f 4/3/1 16/2/1 57/68/1 58/69/1
f 16/70/7 11/71/7 62/72/15 57/73/15
f 42/74/3 38/75/3 70/76/3 67/77/3
f 15/44/1 2/43/1 60/78/1 63/79/1
f 12/61/2 10/60/2 30/80/2 29/81/2
f 20/52/2 12/61/2 29/81/2
f 9/82/13 15/83/13 63/84/16 61/85/16
f 19/7/2 30/80/2 10/60/2
f 36/86/3 37/87/3 69/88/3 59/66/3
f 44/89/12 40/90/12 18/91/12 32/92/12
f 39/62/12 43/93/12 31/94/12 17/63/12
f 18/91/12 27/55/12 32/92/12
f 32/92/12 27/55/12 25/54/12 31/94/12
f 17/63/12 31/94/12 25/54/12
f 1/42/1 14/45/1 45/95/1 46/96/1
f 26/32/8 13/1/8 50/67/17 51/97/17
f 29/81/2 30/80/2 42/98/2 41/99/2
f 20/52/2 29/81/2 41/99/2 37/53/2
f 30/80/2 19/7/2 38/6/2 42/98/2
f 18/91/12 40/90/12 33/100/12 7/101/12
f 39/102/3 35/103/3 53/104/3 54/105/3
f 38/75/3 34/106/3 68/107/3 70/76/3
f 3/108/11 4/109/11 34/47/11 33/46/11
f 5/110/4 6/111/4 36/14/4 35/13/4
f 37/87/3 41/112/3 66/113/3 69/88/3
f 3/108/11 33/46/11 47/114/11 48/115/11
f 32/92/12 31/94/12 43/93/12 44/89/12
f 52/116/12 50/117/12 48/118/12 47/119/12
f 49/120/12 55/121/12 54/122/12 45/123/12
f 50/117/12 52/116/12 56/124/12 51/125/12
f 45/123/12 54/122/12 53/126/12 46/127/12
f 51/125/12 56/124/12 55/121/12 49/120/12
f 28/38/1 26/32/1 51/97/1 49/128/1
f 43/129/18 39/102/18 54/105/18 55/130/18
f 35/13/4 1/16/4 46/131/4 53/132/4
f 44/133/3 43/129/3 55/130/3 56/134/3
f 40/135/19 44/133/19 56/134/19 52/136/19
f 33/137/3 40/135/3 52/136/3 47/138/3
f 14/45/14 28/38/14 49/128/20 45/95/20
f 67/139/2 70/140/2 57/141/2 64/142/2
f 69/143/2 66/144/2 65/145/2 63/146/2
f 66/144/2 67/139/2 64/142/2 65/145/2
f 62/147/2 61/148/2 65/145/2 64/142/2
f 63/146/2 65/145/2 61/148/2
f 57/141/2 62/147/2 64/142/2
f 60/149/2 59/150/2 69/143/2 63/146/2
f 58/151/2 57/141/2 70/140/2 68/152/2
f 2/15/4 36/14/4 59/153/4 60/154/4
f 41/112/3 42/74/3 67/77/3 66/113/3
f 34/47/11 4/109/11 58/155/11 68/156/11
f 11/31/1 9/39/1 61/157/1 62/158/1
